<?xml version="1.0" encoding="UTF-8"?>
<svg width="172.705937px" height="173.027622px" viewBox="0 0 172.705937 173.027622" version="1.1" xmlns="http://www.w3.org/2000/svg" xmlns:xlink="http://www.w3.org/1999/xlink">
    <title>apostrophe-primary</title>
    <defs>
        <linearGradient x1="74.3044367%" y1="6.94053691%" x2="24.69857%" y2="93.1750794%" id="linearGradient-1">
            <stop stop-color="#CC9300" offset="0%"></stop>
            <stop stop-color="#EA433A" offset="47%"></stop>
            <stop stop-color="#B327BF" offset="100%"></stop>
        </linearGradient>
        <linearGradient x1="69.7241724%" y1="-4.41158489%" x2="30.2761646%" y2="104.437787%" id="linearGradient-2">
            <stop stop-color="#CC9300" offset="0%"></stop>
            <stop stop-color="#EA433A" offset="26%"></stop>
            <stop stop-color="#B327BF" offset="47%"></stop>
            <stop stop-color="#6666FF" offset="76%"></stop>
            <stop stop-color="#00BF9A" offset="100%"></stop>
        </linearGradient>
        <linearGradient x1="7.60394767%" y1="102.727417%" x2="74.8675621%" y2="33.1390695%" id="linearGradient-3">
            <stop stop-color="#B327BF" offset="0%"></stop>
            <stop stop-color="#6666FF" offset="47%"></stop>
            <stop stop-color="#00C09A" offset="100%"></stop>
        </linearGradient>
    </defs>
    <g id="Page-1" stroke="none" stroke-width="1" fill="none" fill-rule="evenodd">
        <g id="apostrophe-primary" transform="translate(1.0138, 1.0138)" fill-rule="nonzero">
            <path d="M114.448028,163.585648 L81.7310621,168.773924 C59.4215845,172.314936 50.9587479,171.268865 42.1177846,168.172733 C33.3793513,165.179174 25.7420024,159.621866 20.1984378,152.223145 C14.5445427,144.744333 10.9373337,137.007009 7.40214879,114.654741 L2.22241266,81.8898501 C-1.31277225,59.5375816 -0.268422201,51.0607934 2.82261384,42.2112669 C5.80317497,33.4541255 11.3425472,25.7963936 18.7219429,20.2317366 C26.1884455,14.5685206 33.8890266,10.9553648 56.2225122,7.41435184 L88.9394782,2.2260765 C111.254958,-1.31493646 119.711792,-0.26886472 128.552756,2.82726715 C137.291356,5.81748768 144.931874,11.3677756 150.484106,18.7588195 C156.138001,26.2376312 159.739209,33.974955 163.274393,56.3272235 L168.45413,89.0921142 C171.989314,111.444383 170.950966,119.915159 167.853928,128.770697 C164.863302,137.522499 159.315533,145.171897 151.930591,150.72618 C144.488097,156.40142 136.763508,160.014576 114.448028,163.585648 Z" id="Shell" stroke="#CCCCCC" stroke-width="2" fill="#FEFEFE"></path>
            <g id="Shapes" transform="translate(39.8968, 37.1971)">
                <path d="M77.5822119,68.6080861 C86.1073548,67.3442854 93.0273449,61.0502772 95.1030415,52.6721897 C97.1787381,44.2941023 93.999424,35.489704 87.0532871,30.3801982 C80.1071503,25.2706923 70.7686196,24.8670945 63.4089176,29.3583226 C56.0492156,33.8495507 52.1246031,42.3469275 53.4721307,50.8729618 C54.3211992,56.427336 57.3384183,61.4163357 61.8599813,64.7423503 C66.3815443,68.0683649 72.0370354,69.4589204 77.5822119,68.6080861 Z M76.5198558,61.8687388 C70.7435471,62.8723739 64.9344409,60.2799494 61.8164888,55.3070807 C58.6985366,50.334212 58.8900386,43.9670351 62.3011974,39.1911867 C65.7123561,34.4153384 71.6667278,32.1778848 77.3722444,33.5279918 C83.0777609,34.8780988 87.4029999,39.5480358 88.3198109,45.3480196 C89.6131502,53.1732883 84.3313897,60.5681029 76.5198558,61.8687388 L76.5198558,61.8687388 Z" id="Oval-Copy-84" fill="url(#linearGradient-1)"></path>
                <path d="M8.94320571,43.4242095 L40.4837774,38.4223033 C41.3763239,38.28186 42.1764812,37.7916725 42.7078899,37.0597809 C43.2392986,36.3278893 43.4583367,35.4143728 43.3167269,34.520576 L38.3110491,2.87389991 C38.1694182,1.98098344 37.6794402,1.18100246 36.9489175,0.649964847 C36.2183949,0.118927238 35.3071762,-0.0996613317 34.4157435,0.0422919228 L2.86916984,5.05021007 C1.977723,5.19207445 1.17905868,5.68286028 0.648895089,6.41458726 C0.118731499,7.14631424 -0.0994973022,8.05903508 0.0422223158,8.95193742 L5.0479001,40.5986135 C5.3457571,42.4555851 7.08888592,43.7200245 8.94320571,43.4242095 L8.94320571,43.4242095 Z M11.2359742,36.1618264 L7.2986545,11.2544976 L32.116973,7.31669884 L36.0602947,32.2300396 L11.2359742,36.1618264 Z" id="Rectangle-Copy-64" fill="url(#linearGradient-2)"></path>
                <path d="M28.9719189,54.9249868 L15.2873321,93.3230339 C14.8821601,94.457032 15.1045135,95.7210247 15.8722409,96.6480131 C16.6399682,97.5750015 17.8390941,98.0273664 19.0265854,97.8379757 L57.5414947,91.7298786 C58.727317,91.5386512 59.7251836,90.7364992 60.1682854,89.6182884 C60.6113872,88.5000775 60.4343376,87.2308173 59.7022189,86.2770794 L34.8718964,54.0051651 C34.1141909,53.0171793 32.8787334,52.5219383 31.6497371,52.713542 C30.4207408,52.9051456 29.3939975,53.7530696 28.9719189,54.9249868 L28.9719189,54.9249868 Z M33.2873653,63.0951678 L50.8072375,85.8682698 L23.6301284,90.1848187 L33.2873653,63.0951678 Z" id="Triangle-Copy-15" fill="url(#linearGradient-3)"></path>
            </g>
        </g>
    </g>
</svg>