<?xml version="1.0" encoding="UTF-8"?>
<svg width="216px" height="181px" viewBox="0 0 216 181" version="1.1" xmlns="http://www.w3.org/2000/svg" xmlns:xlink="http://www.w3.org/1999/xlink">
    <title>Group 3 Copy 2</title>
    <g id="Search" stroke="none" stroke-width="1" fill="none" fill-rule="evenodd">
        <g id="Artboard-Copy-5" transform="translate(-537, -272)">
            <g id="Group-5" transform="translate(537, 272)">
                <g id="Group-3-Copy-2" transform="translate(108, 90.5) rotate(-180) translate(-108, -90.5)">
                    <line x1="18.0117209" y1="66.7947964" x2="48.5" y2="147.25" id="Line-Copy-3" stroke="#EAEBEB" stroke-width="0.864" stroke-linecap="square"></line>
                    <line x1="18.0117209" y1="66.7947964" x2="195.131721" y2="125.806291" id="Line-Copy-4" stroke="#EAEBEB" stroke-width="0.864" stroke-linecap="square"></line>
                    <line x1="190.56" y1="57.0286624" x2="195.131721" y2="118.112023" id="Line-Copy-10" stroke="#EAEBEB" stroke-width="0.864" stroke-linecap="square"></line>
                    <line x1="17.76" y1="66.6464968" x2="189.947721" y2="61.5878998" id="Line-Copy-5" stroke="#EAEBEB" stroke-width="0.864" stroke-linecap="square"></line>
                    <line x1="48.5" y1="147.25" x2="189.947721" y2="58.9844516" id="Line-Copy-6" stroke="#EAEBEB" stroke-width="0.864" stroke-linecap="square"></line>
                    <line x1="50.75" y1="147.25" x2="132.96" y2="155.130573" id="Line-Copy-8" stroke="#EAEBEB" stroke-width="0.864" stroke-linecap="square"></line>
                    <line x1="130.331721" y1="155.312038" x2="189.947721" y2="125.806291" id="Line-Copy-7" stroke="#EAEBEB" stroke-width="0.864" stroke-linecap="square"></line>
                    <line x1="122.5" y1="159.75" x2="100" y2="20" id="Line-Copy-9" stroke="#EAEBEB" stroke-width="0.864" stroke-linecap="square"></line>
                    <line x1="135.131721" y1="152.70859" x2="189.6" y2="58.9522293" id="Line-Copy-11" stroke="#EAEBEB" stroke-width="0.864" stroke-linecap="square"></line>
                    <line x1="99" y1="20" x2="24.0597209" y2="66.7947964" id="Line-Copy" stroke="#EAEBEB" stroke-width="0.864" stroke-linecap="square"></line>
                    <line x1="100" y1="18.25" x2="183.035721" y2="58.9844516" id="Line-Copy-2" stroke="#EAEBEB" stroke-width="0.864" stroke-linecap="square"></line>
                    <g id="Group-2" transform="translate(121.056, 162.7759) rotate(180) translate(-121.056, -162.7759)translate(102.912, 144.5517)">
                        <rect id="Rectangle-Copy-2" fill="#F1F1F1" x="-2.27373675e-13" y="0" width="36.288" height="36.4482759" rx="8.64"></rect>
                        <g id="Group" transform="translate(11.5317, 10.7804)" stroke="#000000" stroke-linecap="round" stroke-linejoin="round" stroke-width="1.728">
                            <ellipse id="Oval" cx="12.96" cy="13.0172414" rx="2.592" ry="2.60344828"></ellipse>
                            <ellipse id="Oval" cx="2.592" cy="2.60344828" rx="2.592" ry="2.60344828"></ellipse>
                            <path d="M2.592,15.6206897 L2.592,5.20689655 C2.592,9.52043089 6.07343379,13.0172414 10.368,13.0172414" id="Path"></path>
                        </g>
                    </g>
                    <g id="Group-2-Copy" transform="translate(18.144, 66.8621) rotate(180) translate(-18.144, -66.8621)translate(0, 48.6379)">
                        <rect id="Rectangle-Copy-2" fill="#F1F1F1" x="0" y="0" width="36.288" height="36.4482759" rx="8.64"></rect>
                        <g id="Group" transform="translate(9.8037, 10.7804)" stroke="#000000" stroke-linecap="round" stroke-linejoin="round" stroke-width="1.728">
                            <path d="M10.368,6.07471264 C10.368,7.03327583 9.59434805,7.81034483 8.64,7.81034483 L3.456,7.81034483 L0,11.2816092 L0,1.73563218 C0,0.781034483 0.7776,0 1.728,0 L8.64,0 C9.59434805,0 10.368,0.777068997 10.368,1.73563218 L10.368,6.07471264 Z" id="Path"></path>
                            <path d="M13.824,6.07471264 L15.552,6.07471264 C16.506348,6.07471264 17.28,6.85178164 17.28,7.81034483 L17.28,17.3563218 L13.824,13.8850575 L8.64,13.8850575 C7.68565195,13.8850575 6.912,13.1079885 6.912,12.1494253 L6.912,11.2816092" id="Path"></path>
                        </g>
                    </g>
                    <g id="Group-2-Copy-2" transform="translate(100.08, 18.2241) rotate(180) translate(-100.08, -18.2241)translate(81.936, 0)">
                        <rect id="Rectangle-Copy-2" fill="#F1F1F1" x="-2.27373675e-13" y="0" width="36.288" height="36.4482759" rx="8.64"></rect>
                        <g id="Group" transform="translate(11.5317, 9.9126)" stroke="#000000" stroke-linecap="round" stroke-linejoin="round" stroke-width="1.728">
                            <path d="M15.552,4.33908046 L12.96,4.33908046 C12.005652,4.33908046 11.232,3.56201146 11.232,2.60344828 L11.232,0" id="Path"></path>
                            <path d="M15.552,3.47126437 L15.552,9.11206897 C15.552,9.80632184 14.9472,10.4137931 14.256,10.4137931 L8.208,10.4137931 C7.5168,10.4137931 6.912,9.80632184 6.912,9.11206897 L6.912,1.30172414 C6.912,0.607471264 7.5168,0 8.208,0 L12.096,0 L15.552,3.47126437 Z" id="Path"></path>
                            <path d="M3.456,5.20689655 L3.456,12.8436782 C3.456,13.104023 3.6288,13.3643678 3.8016,13.537931 C3.9744,13.7114943 4.2336,13.8850575 4.4928,13.8850575 L10.368,13.8850575" id="Path"></path>
                            <path d="M0,8.67816092 L0,16.3149425 C0,16.5752874 0.1728,16.8356322 0.3456,17.0091954 C0.5184,17.1827586 0.7776,17.3563218 1.0368,17.3563218 L6.912,17.3563218" id="Path"></path>
                        </g>
                    </g>
                    <g id="Group-2-Copy-6" transform="translate(197.856, 125.8736) rotate(180) translate(-197.856, -125.8736)translate(179.712, 107.6494)">
                        <rect id="Rectangle-Copy-2" fill="#F1F1F1" x="0" y="0" width="36.288" height="36.4482759" rx="8.64"></rect>
                        <g id="Group" transform="translate(11.5317, 9.9126)" stroke="#000000" stroke-linecap="round" stroke-linejoin="round" stroke-width="1.728">
                            <path d="M9.504,0 L1.728,0 C0.773651952,0 0,0.777068997 0,1.73563218 L0,15.6206897 C0,16.5792528 0.773651952,17.3563218 1.728,17.3563218 L12.096,17.3563218 C13.050348,17.3563218 13.824,16.5792528 13.824,15.6206897 L13.824,4.33908046 L9.504,0 Z" id="Path"></path>
                            <path d="M8.64,0 L8.64,3.47126437 C8.64,4.42982755 9.41365195,5.20689655 10.368,5.20689655 L13.824,5.20689655" id="Path"></path>
                            <line x1="5.184" y1="6.07471264" x2="3.456" y2="6.07471264" id="Path"></line>
                            <line x1="10.368" y1="9.54597701" x2="3.456" y2="9.54597701" id="Path"></line>
                            <line x1="10.368" y1="13.0172414" x2="3.456" y2="13.0172414" id="Path"></line>
                        </g>
                    </g>
                    <g id="Group-2-Copy-3" transform="translate(48.432, 149.8736) rotate(180) translate(-48.432, -149.8736)translate(30.288, 131.6494)">
                        <rect id="Rectangle-Copy-2" fill="#F1F1F1" x="0" y="0" width="36.288" height="36.4482759" rx="8.64"></rect>
                        <g id="Group" transform="translate(9.8037, 9.9126)" stroke="#000000" stroke-linecap="round" stroke-linejoin="round" stroke-width="1.728">
                            <path d="M5.0976,14.759777 C8.50448241,16.5151505 12.6765756,15.5181885 14.9314348,12.4098871 C17.186294,9.30158567 16.8527443,5.00715277 14.1452414,2.28769142 C11.4377385,-0.431769931 7.16218971,-0.766792781 4.06755658,1.49802561 C0.972923448,3.762844 -0.0196545528,7.95336437 1.728,11.3752942 L0,16.4954091 L5.0976,14.759777 Z" id="Path"></path>
                            <path d="M6.12576,5.21379995 C6.54517746,4.01625231 7.76337145,3.29714682 9.00908033,3.51176275 C10.2547892,3.72637869 11.164763,4.81213381 11.1628829,6.08161604 C11.1628829,7.81724823 8.57088,8.68506432 8.57088,8.68506432" id="Path"></path>
                            <line x1="8.64" y1="12.1563287" x2="8.64864" y2="12.1563287" id="Path"></line>
                        </g>
                    </g>
                    <g id="Group-2-Copy-4" transform="translate(92.176, 81.6724)">
                        <rect id="Rectangle-Copy-2" fill="#F1F1F1" x="0" y="0" width="36.288" height="36.4482759" rx="8.64"></rect>
                        <g id="Group" transform="translate(9.8037, 13.3839)" stroke="#000000" stroke-linecap="round" stroke-linejoin="round" stroke-width="1.728">
                            <polyline id="Path" points="12.096 10.4137931 17.28 5.20689655 12.096 0"></polyline>
                            <polyline id="Path" points="5.184 0 0 5.20689655 5.184 10.4137931"></polyline>
                        </g>
                    </g>
                    <g id="Group-2-Copy-5" transform="translate(189.5157, 58.5505) rotate(180) translate(-189.5157, -58.5505)translate(171.3717, 40.3264)">
                        <rect id="Rectangle-Copy-2" fill="#F1F1F1" x="0" y="0" width="36.288" height="36.4482759" rx="8.64"></rect>
                        <g id="Group" transform="translate(10.368, 10.4138)" stroke="#000000" stroke-linecap="round" stroke-linejoin="round" stroke-width="1.728">
                            <path d="M4.32,0 L3.456,0 C2.50165195,0 1.728,0.777068997 1.728,1.73563218 L1.728,6.07471264 C1.728,7.03327583 0.954348048,7.81034483 0,7.81034483 C0.954348048,7.81034483 1.728,8.58741383 1.728,9.54597701 L1.728,13.8850575 C1.728,14.8396552 2.5056,15.6206897 3.456,15.6206897 L4.32,15.6206897" id="Path"></path>
                            <path d="M11.232,15.6206897 L12.096,15.6206897 C13.050348,15.6206897 13.824,14.8436207 13.824,13.8850575 L13.824,9.54597701 C13.824,8.59137931 14.6016,7.81034483 15.552,7.81034483 C14.597652,7.81034483 13.824,7.03327583 13.824,6.07471264 L13.824,1.73563218 C13.824,0.777068997 13.050348,0 12.096,0 L11.232,0" id="Path"></path>
                        </g>
                    </g>
                </g>
            </g>
        </g>
    </g>
</svg>