<svg xmlns="http://www.w3.org/2000/svg" width="190" height="200"><g fill="none" fill-rule="evenodd"><path stroke="#EAEBEB" stroke-linecap="square" stroke-width=".829" d="m95.96 15.311-4.079 81.34M98.598 12.919 21.111 141.866M173.687 59.33 95.96 182.775M17.753 142.823l76.287 39.713M170.088 60.287 95 19.856M171.288 62.201 17.753 142.823M177.765 140.431l-161.692 1.674M172.967 142.105 17.753 63.397"/><g transform="translate(77.535)"><rect width="34.822" height="34.879" fill="#F1F1F1" rx="8.294"/><g stroke="#000" stroke-linecap="round" stroke-linejoin="round" stroke-width="1.659" transform="translate(11.066 10.316)"><ellipse cx="12.436" cy="12.457" rx="2.487" ry="2.491"/><ellipse cx="2.487" cy="2.491" rx="2.487" ry="2.491"/><path d="M2.487 14.948V4.983c0 4.127 3.341 7.474 7.462 7.474"/></g></g><g transform="translate(155.178 124.32)"><rect width="34.822" height="34.879" fill="#F1F1F1" rx="8.294"/><g stroke="#000" stroke-linecap="round" stroke-linejoin="round" stroke-width="1.659"><path d="M19.357 16.13a1.66 1.66 0 0 1-1.658 1.66h-4.975l-3.316 3.322v-9.135c0-.913.746-1.66 1.658-1.66h6.633a1.66 1.66 0 0 1 1.658 1.66v4.152ZM22.673 16.13h1.658a1.66 1.66 0 0 1 1.658 1.66v9.135l-3.316-3.322H17.7a1.66 1.66 0 0 1-1.659-1.66v-.831"/></g></g><g transform="translate(77.512 165.121)"><rect width="34.822" height="34.879" fill="#F1F1F1" rx="8.294"/><g stroke="#000" stroke-linecap="round" stroke-linejoin="round" stroke-width="1.659"><path d="M25.99 13.638h-2.488a1.66 1.66 0 0 1-1.658-1.66V9.485"/><path d="M25.99 12.808v5.397c0 .665-.58 1.246-1.244 1.246h-5.804c-.663 0-1.243-.581-1.243-1.246v-7.474c0-.664.58-1.245 1.243-1.245h3.731l3.316 3.322Z"/><path d="M14.382 14.468v7.308c0 .25.166.499.332.665.166.166.414.332.663.332h5.638"/><path d="M11.066 17.79v7.308c0 .25.166.498.331.665.166.166.415.332.664.332h5.638"/></g></g><g transform="translate(0 44.882)"><rect width="34.822" height="34.879" fill="#F1F1F1" rx="8.294"/><g stroke="#000" stroke-linecap="round" stroke-linejoin="round" stroke-width="1.659"><path d="M20.186 9.486h-7.462a1.66 1.66 0 0 0-1.658 1.66v13.288c0 .917.742 1.66 1.658 1.66h9.95a1.66 1.66 0 0 0 1.657-1.66V13.638l-4.145-4.152Z"/><path d="M19.357 9.486v3.322c0 .917.742 1.66 1.658 1.66h3.316M16.04 15.299h-1.658M21.015 18.62h-6.633M21.015 21.943h-6.633"/></g></g><g transform="translate(154.902 44.883)"><rect width="34.822" height="34.879" fill="#F1F1F1" rx="8.294"/><g stroke="#000" stroke-linecap="round" stroke-linejoin="round" stroke-width="1.659"><path d="M14.3 23.61a7.454 7.454 0 0 0 9.436-2.249 7.483 7.483 0 0 0-.755-9.686 7.453 7.453 0 0 0-9.67-.756 7.482 7.482 0 0 0-2.245 9.452l-1.658 4.9 4.891-1.661Z"/><path d="M15.286 14.475a2.487 2.487 0 0 1 4.833.83c0 1.661-2.487 2.492-2.487 2.492M17.699 21.119h.008"/></g></g><g transform="rotate(-180 56.052 57.095)"><rect width="34.822" height="34.879" fill="#F1F1F1" rx="8.294"/><g stroke="#000" stroke-linecap="round" stroke-linejoin="round" stroke-width="1.659"><path d="m21.015 22.773 4.975-4.983-4.975-4.982M14.383 12.807 9.408 17.79l4.975 4.983"/></g></g><g transform="translate(.327 124.618)"><rect width="34.822" height="34.879" fill="#F1F1F1" rx="8.294"/><g stroke="#000" stroke-linecap="round" stroke-linejoin="round" stroke-width="1.659"><path d="M14.095 9.965h-.83a1.66 1.66 0 0 0-1.658 1.661v4.153a1.66 1.66 0 0 1-1.658 1.66 1.66 1.66 0 0 1 1.658 1.661v4.153c0 .913.746 1.66 1.658 1.66h.83M20.727 24.913h.83a1.66 1.66 0 0 0 1.658-1.66V19.1c0-.913.746-1.66 1.658-1.66a1.66 1.66 0 0 1-1.658-1.661v-4.153a1.66 1.66 0 0 0-1.659-1.66h-.829"/></g></g></g></svg>