<svg data-name="Layer 1" xmlns="http://www.w3.org/2000/svg" viewBox="0 0 496.46 148.71"><defs><linearGradient id="a" x1="24.88" y1="-854.33" x2="71.95" y2="-822.03" gradientTransform="rotate(-11.5 4299.596 -470.753)" gradientUnits="userSpaceOnUse"><stop offset="0" stop-color="#b327bf"/><stop offset=".47" stop-color="#66f"/><stop offset="1" stop-color="#00c09a"/></linearGradient><linearGradient id="b" x1="29.02" y1="-789.21" x2="79.67" y2="-839.86" gradientTransform="rotate(-11.5 4299.596 -470.753)" gradientUnits="userSpaceOnUse"><stop offset="0" stop-color="#cc9300"/><stop offset=".26" stop-color="#ea433a"/><stop offset=".47" stop-color="#b327bf"/><stop offset=".76" stop-color="#66f"/><stop offset="1" stop-color="#00bf9a"/></linearGradient><linearGradient id="c" x1="62.56" y1="-822.75" x2="117.23" y2="-877.42" gradientTransform="rotate(-11.5 4299.596 -470.753)" gradientUnits="userSpaceOnUse"><stop offset=".02" stop-color="#00bf9a"/><stop offset=".24" stop-color="#66f"/><stop offset=".69" stop-color="#ea433a"/></linearGradient><linearGradient id="d" data-name="New Gradient Swatch" x1="89.56" y1="-821.62" x2="56.59" y2="-782.32" gradientTransform="rotate(-11.5 4299.596 -470.753)" gradientUnits="userSpaceOnUse"><stop offset=".15" stop-color="#66f"/><stop offset=".48" stop-color="#00bf9a"/><stop offset=".91" stop-color="#cc9300"/></linearGradient></defs><g fill="#191919"><path d="M184.09 121h-8.16l18.34-51h8.88l18.34 51h-8.16l-4.65-13.49h-19.91zm6.91-20h15.43l-7.51-21.7h-.4zM256.3 92.11l-6.74 1.2a8.41 8.41 0 00-2.4-3.52 7.51 7.51 0 00-5.23-1.61 9.37 9.37 0 00-5.29 1.41 4.13 4.13 0 00-2.1 3.62 3.7 3.7 0 001.4 3.09 11.66 11.66 0 004.59 1.91l6.07 1.39q10.46 2.4 10.45 10.4a10 10 0 01-2 6.12 13 13 0 01-5.49 4.18 20.5 20.5 0 01-8.15 1.52Q235 121.77 231 119a11.65 11.65 0 01-5-7.82l7.19-1.1q1.34 5.67 8.21 5.67a10 10 0 005.84-1.53 4.46 4.46 0 002.19-3.74q0-3.66-5.4-4.85l-6.46-1.42c-3.59-.8-6.22-2.09-7.92-3.88a9.43 9.43 0 01-2.53-6.74 9.7 9.7 0 011.88-5.92 12.38 12.38 0 015.22-4 19.46 19.46 0 017.64-1.42q6.19 0 9.75 2.69a12.59 12.59 0 014.69 7.17zM293.29 92.11l-6.74 1.2a8.53 8.53 0 00-2.41-3.52 7.51 7.51 0 00-5.23-1.61 9.37 9.37 0 00-5.29 1.41 4.13 4.13 0 00-2.1 3.62 3.7 3.7 0 001.4 3.09 11.72 11.72 0 004.59 1.91l6.07 1.39Q294 102 294 110a10 10 0 01-2 6.12 13.14 13.14 0 01-5.5 4.18 20.5 20.5 0 01-8.15 1.52q-6.45 0-10.47-2.75a11.63 11.63 0 01-5-7.82l7.19-1.1q1.35 5.67 8.21 5.67a10 10 0 005.85-1.53 4.46 4.46 0 002.19-3.74q0-3.66-5.4-4.85l-6.47-1.42q-5.37-1.2-7.91-3.88a9.44 9.44 0 01-2.54-6.74 9.7 9.7 0 012-5.99 12.38 12.38 0 015.22-4 19.49 19.49 0 017.64-1.42q6.19 0 9.76 2.69a12.64 12.64 0 014.67 7.17zM318.1 121.77a18.51 18.51 0 01-9.7-2.44 16.21 16.21 0 01-6.28-6.85 22.89 22.89 0 01-2.2-10.34 23.17 23.17 0 012.2-10.35 16.49 16.49 0 0115.46-9.51 18.21 18.21 0 018.2 1.93 14.93 14.93 0 016.29 6.15q2.43 4.22 2.43 11.13v2.64h-27.17q.15 5.52 3.11 8.51a10.41 10.41 0 007.74 3 10.66 10.66 0 005.5-1.36 7.65 7.65 0 003.3-4.08l7 1.26a12.9 12.9 0 01-5.48 7.49 18.26 18.26 0 01-10.4 2.82zm-10.75-23.21h19.86a10.51 10.51 0 00-2.64-7.26 8.93 8.93 0 00-6.94-2.87 9.69 9.69 0 00-5.26 1.41 10.26 10.26 0 00-3.56 3.7 11.33 11.33 0 00-1.46 5.02zM342.22 121V82.78h7.14V89h.48a9.93 9.93 0 013.9-4.94 11.63 11.63 0 016.5-1.78 11 11 0 016.43 1.8 10.51 10.51 0 013.84 4.92h.4a11 11 0 014.36-4.89 13.4 13.4 0 017.11-1.83 11.54 11.54 0 018.49 3.28q3.3 3.27 3.3 9.81V121h-7.44V96.07q0-3.88-2.1-5.62a7.63 7.63 0 00-5.06-1.75 7.21 7.21 0 00-5.65 2.24 8.24 8.24 0 00-2 5.7V121h-7.41V95.6a6.67 6.67 0 00-1.94-5 6.9 6.9 0 00-5.05-1.9 7.4 7.4 0 00-5.5 2.44 8.74 8.74 0 00-2.34 6.3V121zM404.16 121V70h7.44v19h.45a21.63 21.63 0 011.88-2.76 10.3 10.3 0 013.38-2.75 11.9 11.9 0 015.69-1.21 15 15 0 018.25 2.34 16 16 0 015.75 6.75 24.54 24.54 0 012.07 10.63 25 25 0 01-2.07 10.58 15.91 15.91 0 01-5.67 6.8 14.67 14.67 0 01-8.24 2.36 12 12 0 01-5.67-1.17 10.9 10.9 0 01-3.45-2.73 20.5 20.5 0 01-1.92-2.79h-.63v6zm7.29-19.11a16.83 16.83 0 002.59 9.77 8.44 8.44 0 007.39 3.74 8.69 8.69 0 005.58-1.78 10.87 10.87 0 003.4-4.84 19.6 19.6 0 001.14-6.89 19.2 19.2 0 00-1.13-6.8 10.54 10.54 0 00-3.37-4.74 8.89 8.89 0 00-5.62-1.75 8.51 8.51 0 00-7.43 3.65q-2.55 3.65-2.55 9.64zM454.28 70v51h-7.44V70zM468.42 135.23a16.58 16.58 0 01-3-.25 8.72 8.72 0 01-2-.57l1.79-6.1a8.7 8.7 0 005.13.14c1.39-.47 2.55-1.95 3.5-4.42l.92-2.53-14-38.72h8l9.68 29.66h.4l9.67-29.66 8 .08-15.8 43.24a14.94 14.94 0 01-4.64 6.78 11.93 11.93 0 01-7.65 2.35z"/></g><g fill="#191919"><path d="M184.83 43.81h-3.67l8.23-22.88h4l8.24 22.88H198l-2.09-6.06h-8.93zm3.1-9h6.93l-3.38-9.77h-.18zM204.39 50.24V26.65h3.26v2.78h.28a9.59 9.59 0 01.85-1.24A4.56 4.56 0 01210.3 27a5.27 5.27 0 012.56-.53 6.67 6.67 0 013.7 1.05 7.1 7.1 0 012.57 3 11.13 11.13 0 01.93 4.76 11.22 11.22 0 01-.92 4.77 7.15 7.15 0 01-2.55 3 6.57 6.57 0 01-3.7 1.06 5.43 5.43 0 01-2.55-.52 4.86 4.86 0 01-1.54-1.23 9 9 0 01-.87-1.25h-.2v9.1zm3.27-15a7.51 7.51 0 001.17 4.38 3.78 3.78 0 003.31 1.68 3.87 3.87 0 002.51-.8 4.84 4.84 0 001.53-2.17 8.82 8.82 0 00.51-3.09 8.61 8.61 0 00-.51-3.06 4.85 4.85 0 00-1.51-2.18 4 4 0 00-2.53-.78 3.81 3.81 0 00-3.33 1.64 7.42 7.42 0 00-1.15 4.37zM230.78 44.15a7.93 7.93 0 01-4.21-1.1 7.43 7.43 0 01-2.79-3.1 10.33 10.33 0 01-1-4.64 10.4 10.4 0 011-4.67 7.4 7.4 0 012.79-3.11 8.63 8.63 0 018.43 0 7.46 7.46 0 012.79 3.11 10.4 10.4 0 011 4.67 10.32 10.32 0 01-1 4.64 7.5 7.5 0 01-2.79 3.1 8 8 0 01-4.22 1.1zm0-2.8a4 4 0 002.6-.83 4.87 4.87 0 001.52-2.2 9.4 9.4 0 000-6 4.94 4.94 0 00-1.52-2.22 4.49 4.49 0 00-5.2 0 5 5 0 00-1.53 2.22 9.4 9.4 0 000 6 5 5 0 001.53 2.2 4 4 0 002.61.83zM254.51 30.84l-3 .53a3.74 3.74 0 00-1.08-1.58 3.37 3.37 0 00-2.35-.72 4.21 4.21 0 00-2.37.63 1.88 1.88 0 00-1 1.63 1.69 1.69 0 00.64 1.39 5.09 5.09 0 002.06.85l2.72.63q4.69 1.08 4.69 4.65a4.51 4.51 0 01-.82 2.75 6 6 0 01-2.47 1.87 9.12 9.12 0 01-3.66.68 8.18 8.18 0 01-4.7-1.23 5.2 5.2 0 01-2.24-3.51l3.23-.5q.6 2.55 3.69 2.55a4.47 4.47 0 002.62-.69 2 2 0 001-1.68c0-1.09-.8-1.82-2.42-2.18l-2.9-.63a6.88 6.88 0 01-3.56-1.74 4.26 4.26 0 01-1.14-3 4.43 4.43 0 01.85-2.67 5.63 5.63 0 012.35-1.78 8.78 8.78 0 013.43-.63 7.16 7.16 0 014.38 1.2 5.68 5.68 0 012.05 3.18zM266.27 26.65v2.68h-3.52v9.44c0 1 .2 1.59.62 1.87a2.48 2.48 0 001.43.42 3.76 3.76 0 00.71-.06l.47-.09.6 2.76a5.34 5.34 0 01-.83.23 7 7 0 01-1.34.13 5.78 5.78 0 01-2.46-.47A4.17 4.17 0 01260.1 42a4.51 4.51 0 01-.69-2.58V29.33h-2.52v-2.68h2.52v-4.11h3.34v4.11zM269.7 43.81V26.65h3.23v2.72h.18a4.11 4.11 0 011.66-2.18 4.73 4.73 0 012.69-.8h.75l.67.06v3.19a6.56 6.56 0 00-.71-.12 6.93 6.93 0 00-1-.08 4.17 4.17 0 00-2.94 1.09 3.66 3.66 0 00-1.23 2.8v10.48zM288 44.15a7.93 7.93 0 01-4.21-1.1A7.52 7.52 0 01281 40a10.32 10.32 0 01-1-4.64 10.4 10.4 0 011-4.67 7.49 7.49 0 012.8-3.11 8.61 8.61 0 018.42 0 7.4 7.4 0 012.78 3.06 10.4 10.4 0 011 4.67 10.33 10.33 0 01-1 4.69 7.43 7.43 0 01-2.79 3.1 7.91 7.91 0 01-4.21 1.05zm0-2.8a4 4 0 002.6-.83 4.86 4.86 0 001.51-2.2 9.4 9.4 0 000-6 4.92 4.92 0 00-1.51-2.22 4.49 4.49 0 00-5.2 0 5 5 0 00-1.54 2.22 9.4 9.4 0 000 6 4.91 4.91 0 001.54 2.2 4 4 0 002.6.83zM299 50.24V26.65h3.26v2.78h.28a10.72 10.72 0 01.85-1.24 4.56 4.56 0 011.52-1.19 5.27 5.27 0 012.56-.53 6.67 6.67 0 013.7 1.05 7.1 7.1 0 012.57 3 11.13 11.13 0 01.94 4.76 11.21 11.21 0 01-.93 4.77 7.15 7.15 0 01-2.55 3 6.57 6.57 0 01-3.7 1.06 5.36 5.36 0 01-2.54-.52 4.9 4.9 0 01-1.55-1.23 9 9 0 01-.87-1.25h-.2v9.1zm3.28-15a7.51 7.51 0 001.16 4.38 3.79 3.79 0 003.32 1.68 3.86 3.86 0 002.5-.8 4.76 4.76 0 001.53-2.17 8.82 8.82 0 00.51-3.09 8.61 8.61 0 00-.51-3.06 4.85 4.85 0 00-1.51-2.18 4 4 0 00-2.52-.78 3.82 3.82 0 00-3.34 1.64 7.42 7.42 0 00-1.14 4.37zM321.13 33.62v10.19h-3.34V20.93h3.29v8.51h.22a4.84 4.84 0 011.84-2.2 5.85 5.85 0 013.24-.81 5.73 5.73 0 014.26 1.63 6.57 6.57 0 011.62 4.83v10.92h-3.34V33.3a4.16 4.16 0 00-1-2.94 3.52 3.52 0 00-2.7-1 4.06 4.06 0 00-2.95 1.12 4.24 4.24 0 00-1.14 3.14zM343.39 44.15a8.31 8.31 0 01-4.39-1.09 7.32 7.32 0 01-2.78-3.06 10.26 10.26 0 01-1-4.64 10.4 10.4 0 011-4.65 7.37 7.37 0 016.94-4.26 8.09 8.09 0 013.68.86 6.76 6.76 0 012.83 2.76 10 10 0 011.09 5v1.18h-12.2a5.4 5.4 0 001.44 3.8 4.67 4.67 0 003.48 1.34 4.79 4.79 0 002.47-.61 3.39 3.39 0 001.43-1.78l3.16.57a5.84 5.84 0 01-2.45 3.36 8.22 8.22 0 01-4.7 1.22zm-4.82-10.42h8.91a4.68 4.68 0 00-1.18-3.26 4 4 0 00-3.12-1.29 4.36 4.36 0 00-2.36.64 4.63 4.63 0 00-1.6 1.66 5 5 0 00-.65 2.25z"/></g><path d="M102.79 139.8L75 145.71c-19 4-26.25 3.51-34 1.28a39.42 39.42 0 01-19.49-12.66c-5.18-6.14-8.62-12.59-12.65-31.54L3 75C-1 56-.52 48.75 1.72 41a39.47 39.47 0 0112.65-19.45C20.51 16.37 27 12.93 45.92 8.9L73.71 3c19-4 26.24-3.52 34-1.28a39.47 39.47 0 0119.49 12.65c5.18 6.14 8.61 12.6 12.64 31.55l5.91 27.79c4 19 3.51 26.24 1.28 34a39.42 39.42 0 01-12.66 19.49c-6.18 5.14-12.63 8.57-31.58 12.6z" fill-rule="evenodd"/><path d="M65 47.62l5.22 24.55-24.53 5.22L41 55.23a2.44 2.44 0 011.88-2.9L65 47.62m6.44-9.92l-30.32 6.44A10.83 10.83 0 0032.79 57l6.45 30.34 40.92-8.7-8.7-40.94z" fill="url(#a)"/><path d="M72 80.35l5.2 24.55-22.2 4.72a2.38 2.38 0 01-2.83-1.84l-4.74-22.21L72 80.35m6.44-9.92l-40.94 8.7 6.5 30.39a10.77 10.77 0 0012.76 8.29l30.4-6.46-8.7-40.92z" fill="url(#b)"/><path d="M95.36 41.17a2.44 2.44 0 012.9 1.88L103 65.21l-24.58 5.22-5.22-24.55 22.16-4.71M93.62 33l-30.34 6.44L72 80.35l40.91-8.69-6.44-30.34A10.81 10.81 0 0093.62 33z" fill="url(#c)"/><path d="M104.71 73.39l4.72 22.23a2.37 2.37 0 01-1.83 2.82l-22.22 4.72-5.22-24.55 24.55-5.22m6.44-9.92l-40.91 8.7 8.69 40.92 30.41-6.47a10.74 10.74 0 008.28-12.74l-6.47-30.41z" fill="url(#d)"/></svg>